<svg width="92" height="24" viewBox="0 0 92 24" fill="none" xmlns="http://www.w3.org/2000/svg">
<path d="M3.5 21L14 3" stroke="#505050" stroke-width="2" stroke-linecap="round" stroke-linejoin="round"/>
<path d="M20.5 21L10 3" stroke="#505050" stroke-width="2" stroke-linecap="round" stroke-linejoin="round"/>
<path d="M15.5 21L12 15L8.5 21" stroke="#505050" stroke-width="2" stroke-linecap="round" stroke-linejoin="round"/>
<path d="M2 21H22" stroke="#505050" stroke-width="2" stroke-linecap="round" stroke-linejoin="round"/>
<path d="M31.0085 8.81818L33.8423 17.1108H33.9567L36.7905 8.81818H38.451L34.7869 19H33.0121L29.348 8.81818H31.0085ZM39.802 19V11.3636H41.2885V19H39.802ZM40.5527 10.1854C40.2942 10.1854 40.0721 10.0992 39.8865 9.92685C39.7042 9.75118 39.6131 9.54238 39.6131 9.30043C39.6131 9.05516 39.7042 8.84635 39.8865 8.67401C40.0721 8.49834 40.2942 8.41051 40.5527 8.41051C40.8113 8.41051 41.0317 8.49834 41.214 8.67401C41.3996 8.84635 41.4924 9.05516 41.4924 9.30043C41.4924 9.54238 41.3996 9.75118 41.214 9.92685C41.0317 10.0992 40.8113 10.1854 40.5527 10.1854ZM43.2884 19V11.3636H44.7251V12.5767H44.8047C44.9439 12.1657 45.1892 11.8426 45.5405 11.6072C45.8951 11.3686 46.2962 11.2493 46.7436 11.2493C46.8364 11.2493 46.9458 11.2526 47.0717 11.2592C47.201 11.2659 47.3021 11.2741 47.375 11.2841V12.706C47.3153 12.6894 47.2093 12.6712 47.0568 12.6513C46.9044 12.6281 46.7519 12.6165 46.5994 12.6165C46.2481 12.6165 45.9349 12.6911 45.6598 12.8402C45.388 12.986 45.1726 13.1899 45.0135 13.4517C44.8544 13.7102 44.7749 14.0052 44.7749 14.3366V19H43.2884ZM52.6772 11.3636V12.5568H48.506V11.3636H52.6772ZM49.6246 9.53409H51.1112V16.7578C51.1112 17.0462 51.1542 17.2633 51.2404 17.4091C51.3266 17.5516 51.4376 17.6494 51.5735 17.7024C51.7127 17.7521 51.8635 17.777 52.0259 17.777C52.1452 17.777 52.2496 17.7687 52.3391 17.7521C52.4286 17.7356 52.4982 17.7223 52.5479 17.7124L52.8164 18.9403C52.7302 18.9735 52.6076 19.0066 52.4485 19.0398C52.2894 19.0762 52.0906 19.0961 51.8519 19.0994C51.4608 19.1061 51.0962 19.0365 50.7582 18.8906C50.4201 18.7448 50.1467 18.5194 49.9379 18.2145C49.729 17.9096 49.6246 17.5268 49.6246 17.0661V9.53409ZM59.1589 15.8331V11.3636H60.6504V19H59.1887V17.6776H59.1092C58.9335 18.0852 58.6518 18.425 58.264 18.6967C57.8796 18.9652 57.4006 19.0994 56.8272 19.0994C56.3367 19.0994 55.9025 18.9917 55.5247 18.7763C55.1502 18.5575 54.8552 18.2344 54.6397 17.8068C54.4276 17.3793 54.3216 16.8506 54.3216 16.2209V11.3636H55.8081V16.0419C55.8081 16.5623 55.9522 16.9766 56.2406 17.2848C56.5289 17.593 56.9035 17.7472 57.3642 17.7472C57.6426 17.7472 57.9193 17.6776 58.1944 17.5384C58.4728 17.3991 58.7032 17.1887 58.8855 16.907C59.0711 16.6252 59.1622 16.2673 59.1589 15.8331ZM62.767 19V8.81818H69.081V10.1406H64.3033V13.2429H68.6286V14.5604H64.3033V19H62.767ZM73.5815 19.1541C72.8291 19.1541 72.1812 18.9934 71.6376 18.6719C71.0974 18.3471 70.6797 17.8913 70.3848 17.3047C70.0931 16.7147 69.9473 16.0237 69.9473 15.2315C69.9473 14.4493 70.0931 13.7599 70.3848 13.1634C70.6797 12.5668 71.0907 12.1011 71.6177 11.7663C72.148 11.4316 72.7678 11.2642 73.4771 11.2642C73.908 11.2642 74.3256 11.3355 74.7299 11.478C75.1343 11.6205 75.4972 11.8442 75.8187 12.1491C76.1402 12.4541 76.3938 12.8501 76.5794 13.3374C76.765 13.8213 76.8578 14.4096 76.8578 15.1023V15.6293H70.7875V14.5156H75.4011C75.4011 14.1245 75.3216 13.7782 75.1625 13.4766C75.0034 13.1716 74.7797 12.9313 74.4913 12.7557C74.2063 12.58 73.8715 12.4922 73.487 12.4922C73.0694 12.4922 72.7048 12.5949 72.3933 12.8004C72.085 13.0026 71.8464 13.2678 71.6774 13.5959C71.5117 13.9207 71.4288 14.2737 71.4288 14.6548V15.5249C71.4288 16.0353 71.5183 16.4695 71.6973 16.8274C71.8796 17.1854 72.1331 17.4588 72.4579 17.6477C72.7827 17.8333 73.1622 17.9261 73.5964 17.9261C73.8781 17.9261 74.135 17.8864 74.367 17.8068C74.599 17.724 74.7995 17.6013 74.9686 17.4389C75.1376 17.2765 75.2669 17.076 75.3564 16.8374L76.7633 17.0909C76.6506 17.5052 76.4484 17.8681 76.1568 18.1797C75.8684 18.4879 75.5055 18.7282 75.068 18.9006C74.6338 19.0696 74.1383 19.1541 73.5815 19.1541ZM84.2294 13.228L82.8821 13.4666C82.8258 13.2943 82.7363 13.1302 82.6136 12.9744C82.4943 12.8187 82.3319 12.6911 82.1264 12.5916C81.9209 12.4922 81.6641 12.4425 81.3558 12.4425C80.9349 12.4425 80.5836 12.5369 80.3018 12.7259C80.0201 12.9115 79.8793 13.1518 79.8793 13.4467C79.8793 13.7019 79.9737 13.9074 80.1626 14.0632C80.3516 14.219 80.6565 14.3466 81.0774 14.446L82.2905 14.7244C82.9931 14.8868 83.5168 15.1371 83.8615 15.4751C84.2062 15.8132 84.3786 16.2524 84.3786 16.7926C84.3786 17.25 84.246 17.6577 83.9808 18.0156C83.719 18.3703 83.3527 18.6487 82.8821 18.8509C82.4148 19.053 81.8729 19.1541 81.2564 19.1541C80.4013 19.1541 79.7036 18.9718 79.1634 18.6072C78.6231 18.2393 78.2917 17.7173 78.169 17.0412L79.6058 16.8224C79.6953 17.197 79.8793 17.4804 80.1577 17.6726C80.4361 17.8615 80.799 17.956 81.2464 17.956C81.7337 17.956 82.1231 17.8549 82.4148 17.6527C82.7064 17.4472 82.8523 17.197 82.8523 16.902C82.8523 16.6634 82.7628 16.4628 82.5838 16.3004C82.4081 16.138 82.138 16.0154 81.7734 15.9325L80.4808 15.6491C79.7682 15.4867 79.2412 15.2282 78.8999 14.8736C78.5618 14.5189 78.3928 14.0698 78.3928 13.5263C78.3928 13.0755 78.5187 12.6811 78.7706 12.343C79.0225 12.005 79.3705 11.7415 79.8146 11.5526C80.2588 11.3603 80.7675 11.2642 81.3409 11.2642C82.1662 11.2642 82.8158 11.4432 83.2898 11.8011C83.7637 12.1558 84.0769 12.6314 84.2294 13.228ZM89.5776 11.3636V12.5568H85.4064V11.3636H89.5776ZM86.525 9.53409H88.0115V16.7578C88.0115 17.0462 88.0546 17.2633 88.1408 17.4091C88.227 17.5516 88.338 17.6494 88.4739 17.7024C88.6131 17.7521 88.7639 17.777 88.9263 17.777C89.0456 17.777 89.15 17.7687 89.2395 17.7521C89.329 17.7356 89.3986 17.7223 89.4483 17.7124L89.7168 18.9403C89.6306 18.9735 89.508 19.0066 89.3489 19.0398C89.1898 19.0762 88.9909 19.0961 88.7523 19.0994C88.3612 19.1061 87.9966 19.0365 87.6586 18.8906C87.3205 18.7448 87.0471 18.5194 86.8382 18.2145C86.6294 17.9096 86.525 17.5268 86.525 17.0661V9.53409Z" fill="#505050"/>
</svg>
