<svg width="601" height="100" viewBox="0 0 601 100" fill="none" xmlns="http://www.w3.org/2000/svg">
<path d="M154.6 98.0001L127.976 24.1601H144.304L163.96 80.2161L183.616 24.1601H199.944L173.216 98.0001H154.6Z" fill="#282828"/>
<path d="M205.989 98.0001V42.2561H221.589V98.0001H205.989ZM205.677 35.3921V22.9121H221.797V35.3921H205.677Z" fill="#282828"/>
<path d="M235.95 98.0001V42.2561H250.718L251.238 58.4801L250.094 58.1681C250.995 52.5521 252.59 48.4961 254.878 46.0001C257.166 43.5041 260.321 42.2561 264.342 42.2561H269.438V55.1521H264.342C261.43 55.1521 259.038 55.5334 257.166 56.2961C255.294 57.0588 253.873 58.2721 252.902 59.9361C252.001 61.6001 251.55 63.8534 251.55 66.6961V98.0001H235.95Z" fill="#282828"/>
<path d="M299.866 98.0001C294.111 98.0001 289.882 96.6828 287.178 94.0481C284.474 91.3441 283.122 87.0801 283.122 81.2561V29.1521H298.722V79.3841C298.722 82.0881 299.277 83.9254 300.386 84.8961C301.565 85.8668 303.298 86.3521 305.586 86.3521H313.386V98.0001H299.866ZM274.178 53.9041V42.2561H313.386V53.9041H274.178Z" fill="#282828"/>
<path d="M341.293 99.2481C335.538 99.2481 331.032 97.4108 327.773 93.7361C324.584 89.9921 322.989 84.7921 322.989 78.1361V42.2561H338.589V74.4961C338.589 78.7948 339.248 81.9494 340.565 83.9601C341.882 85.9014 343.962 86.8721 346.805 86.8721C349.994 86.8721 352.456 85.7974 354.189 83.6481C355.992 81.4294 356.893 78.1361 356.893 73.7681V42.2561H372.493V98.0001H358.245L357.829 81.9841L359.805 82.4001C358.973 87.9468 356.997 92.1414 353.877 94.9841C350.757 97.8268 346.562 99.2481 341.293 99.2481Z" fill="#282828"/>
<path d="M386.18 98.0001V24.1601H437.14V37.4721H393.252L401.988 28.4241V62.2241L393.252 55.3601H435.268V68.4641H393.252L401.988 61.6001V98.0001H386.18Z" fill="#282828"/>
<path d="M470.639 99.2481C464.954 99.2481 459.996 98.0694 455.767 95.7121C451.607 93.2854 448.348 89.8881 445.991 85.5201C443.703 81.1521 442.559 76.0214 442.559 70.1281C442.559 64.2348 443.703 59.1388 445.991 54.8401C448.348 50.4721 451.607 47.0748 455.767 44.6481C459.927 42.2214 464.85 41.0081 470.535 41.0081C476.082 41.0081 480.9 42.2214 484.991 44.6481C489.082 47.0748 492.236 50.5414 494.455 55.0481C496.743 59.5548 497.887 64.9281 497.887 71.1681V74.2881H458.679C458.887 78.7255 460.066 82.0188 462.215 84.1681C464.434 86.3174 467.346 87.3921 470.951 87.3921C473.586 87.3921 475.77 86.8374 477.503 85.7281C479.306 84.6188 480.588 82.9201 481.351 80.6321L497.055 81.5681C495.599 87.1148 492.514 91.4481 487.799 94.5681C483.084 97.6881 477.364 99.2481 470.639 99.2481ZM458.679 64.7201H481.871C481.663 60.6294 480.519 57.5788 478.439 55.5681C476.428 53.5574 473.794 52.5521 470.535 52.5521C467.276 52.5521 464.572 53.6268 462.423 55.7761C460.343 57.8561 459.095 60.8374 458.679 64.7201Z" fill="#282828"/>
<path d="M531.344 99.2481C525.589 99.2481 520.771 98.4508 516.888 96.8561C513.005 95.1921 510.024 92.9734 507.944 90.2001C505.933 87.3574 504.789 84.0988 504.512 80.4241L520.32 79.9041C520.805 82.5388 521.915 84.5841 523.648 86.0401C525.381 87.4961 527.947 88.2241 531.344 88.2241C534.117 88.2241 536.267 87.7734 537.792 86.8721C539.387 85.9708 540.184 84.5841 540.184 82.7121C540.184 81.5334 539.907 80.5628 539.352 79.8001C538.797 78.9681 537.688 78.2748 536.024 77.7201C534.429 77.0961 532.037 76.5414 528.848 76.0561C522.955 75.0161 518.344 73.8028 515.016 72.4161C511.688 71.0294 509.331 69.2268 507.944 67.0081C506.557 64.7894 505.864 62.0855 505.864 58.8961C505.864 53.5575 507.909 49.2588 512 46.0001C516.16 42.6721 522.365 41.0081 530.616 41.0081C535.885 41.0081 540.288 41.8401 543.824 43.5041C547.429 45.1681 550.203 47.4561 552.144 50.3681C554.155 53.2108 555.403 56.4694 555.888 60.1441L540.184 60.7681C539.976 58.9654 539.421 57.4401 538.52 56.1921C537.688 54.8748 536.613 53.8694 535.296 53.1761C533.979 52.4134 532.384 52.0321 530.512 52.0321C527.739 52.0321 525.589 52.6214 524.064 53.8001C522.608 54.9094 521.88 56.4001 521.88 58.2721C521.88 59.6588 522.192 60.8028 522.816 61.7041C523.509 62.5361 524.619 63.2294 526.144 63.7841C527.669 64.3388 529.715 64.7894 532.28 65.1361C538.243 65.9681 542.957 67.1468 546.424 68.6721C549.96 70.1281 552.491 71.9654 554.016 74.1841C555.541 76.4028 556.304 79.1414 556.304 82.4001C556.304 86.0054 555.264 89.0561 553.184 91.5521C551.104 94.0481 548.192 95.9548 544.448 97.2721C540.773 98.5895 536.405 99.2481 531.344 99.2481Z" fill="#282828"/>
<path d="M587.288 98.0001C581.533 98.0001 577.304 96.6828 574.6 94.0481C571.896 91.3441 570.544 87.0801 570.544 81.2561V29.1521H586.144V79.3841C586.144 82.0881 586.699 83.9254 587.808 84.8961C588.987 85.8668 590.72 86.3521 593.008 86.3521H600.808V98.0001H587.288ZM561.6 53.9041V42.2561H600.808V53.9041H561.6Z" fill="#282828"/>
<path d="M13.9303 48.1017C17.2736 48.1017 19.5025 46.9831 21.7313 44.7458V69.9153H90.8259V44.7458C93.0547 46.9831 95.2836 48.1923 98.0696 48.1923V96.7627C98.0696 98.4407 96.9552 99 95.2836 99H16.7164C15.0448 99 13.9303 97.322 13.9303 95.6441V48.1017Z" fill="#00B975"/>
<path d="M96.6766 12.8644H15.8806L0 29.3644C0 48.1017 22.8458 48.1017 22.8458 29.3644C22.8458 48.1017 45.1343 48.1017 45.1343 29.3644C45.1343 48.1017 67.4229 48.1017 67.4229 29.3644C67.4229 48.1923 90.2687 48.1923 89.7114 29.3644C90.2687 48.1923 112 48.1923 112 29.3644L96.6766 12.8644Z" fill="#00B975"/>
<path d="M14.4876 3.35593C14.4876 1.5025 15.9844 0 17.8308 0H94.7264C96.5728 0 98.0696 1.5025 98.0696 3.35593V7.83051H14.4876V3.35593Z" fill="#00B975"/>
</svg>
