<svg width="1920" height="798" viewBox="0 0 1920 798" fill="none" xmlns="http://www.w3.org/2000/svg">
<rect width="1920" height="798" fill="white"/>
<path d="M118.363 170.831C124.93 170.831 129.308 168.695 133.687 164.424V212.475H269.408V164.424C273.786 168.695 278.164 171.003 283.637 171.003V263.729C283.637 266.932 281.448 268 278.164 268H123.836C120.552 268 118.363 264.797 118.363 261.593V170.831Z" fill="#D92638"/>
<path d="M280.901 103.559H122.194L91 135.059C91 170.831 135.876 170.831 135.876 135.059C135.876 170.831 179.657 170.831 179.657 135.059C179.657 170.831 223.438 170.831 223.438 135.059C223.438 171.003 268.313 171.003 267.219 135.059C268.313 171.003 311 171.003 311 135.059L280.901 103.559Z" fill="#D92638"/>
<path d="M119.458 85.4068C119.458 81.8684 122.398 79 126.025 79H277.07C280.697 79 283.637 81.8684 283.637 85.4068V93.9492H119.458V85.4068Z" fill="#D92638"/>
<path d="M1653.36 331.831C1659.93 331.831 1664.31 329.695 1668.69 325.424V373.475H1804.41V325.424C1808.79 329.695 1813.16 332.003 1818.64 332.003V424.729C1818.64 427.932 1816.45 429 1813.16 429H1658.84C1655.55 429 1653.36 425.797 1653.36 422.593V331.831Z" fill="#D92638"/>
<path d="M1815.9 264.559H1657.19L1626 296.059C1626 331.831 1670.88 331.831 1670.88 296.059C1670.88 331.831 1714.66 331.831 1714.66 296.059C1714.66 331.831 1758.44 331.831 1758.44 296.059C1758.44 332.003 1803.31 332.003 1802.22 296.059C1803.31 332.003 1846 332.003 1846 296.059L1815.9 264.559Z" fill="#D92638"/>
<path d="M1654.46 246.407C1654.46 242.868 1657.4 240 1661.02 240H1812.07C1815.7 240 1818.64 242.868 1818.64 246.407V254.949H1654.46V246.407Z" fill="#D92638"/>
<path d="M1346.36 170.831C1352.93 170.831 1357.31 168.695 1361.69 164.424V212.475H1497.41V164.424C1501.79 168.695 1506.16 171.003 1511.64 171.003V263.729C1511.64 266.932 1509.45 268 1506.16 268H1351.84C1348.55 268 1346.36 264.797 1346.36 261.593V170.831Z" fill="#D92638"/>
<path d="M1508.9 103.559H1350.19L1319 135.059C1319 170.831 1363.88 170.831 1363.88 135.059C1363.88 170.831 1407.66 170.831 1407.66 135.059C1407.66 170.831 1451.44 170.831 1451.44 135.059C1451.44 171.003 1496.31 171.003 1495.22 135.059C1496.31 171.003 1539 171.003 1539 135.059L1508.9 103.559Z" fill="#D92638"/>
<path d="M1347.46 85.4068C1347.46 81.8684 1350.4 79 1354.02 79H1505.07C1508.7 79 1511.64 81.8684 1511.64 85.4068V93.9492H1347.46V85.4068Z" fill="#D92638"/>
<path d="M1039.36 331.831C1045.93 331.831 1050.31 329.695 1054.69 325.424V373.475H1190.41V325.424C1194.79 329.695 1199.16 332.003 1204.64 332.003V424.729C1204.64 427.932 1202.45 429 1199.16 429H1044.84C1041.55 429 1039.36 425.797 1039.36 422.593V331.831Z" fill="#D92638"/>
<path d="M1201.9 264.559H1043.19L1012 296.059C1012 331.831 1056.88 331.831 1056.88 296.059C1056.88 331.831 1100.66 331.831 1100.66 296.059C1100.66 331.831 1144.44 331.831 1144.44 296.059C1144.44 332.003 1189.31 332.003 1188.22 296.059C1189.31 332.003 1232 332.003 1232 296.059L1201.9 264.559Z" fill="#D92638"/>
<path d="M1040.46 246.407C1040.46 242.868 1043.4 240 1047.02 240H1198.07C1201.7 240 1204.64 242.868 1204.64 246.407V254.949H1040.46V246.407Z" fill="#D92638"/>
<path d="M732.363 170.831C738.93 170.831 743.308 168.695 747.687 164.424V212.475H883.408V164.424C887.786 168.695 892.164 171.003 897.637 171.003V263.729C897.637 266.932 895.448 268 892.164 268H737.836C734.552 268 732.363 264.797 732.363 261.593V170.831Z" fill="#D92638"/>
<path d="M894.901 103.559H736.194L705 135.059C705 170.831 749.876 170.831 749.876 135.059C749.876 170.831 793.657 170.831 793.657 135.059C793.657 170.831 837.438 170.831 837.438 135.059C837.438 171.003 882.313 171.003 881.219 135.059C882.313 171.003 925 171.003 925 135.059L894.901 103.559Z" fill="#D92638"/>
<path d="M733.458 85.4068C733.458 81.8684 736.398 79 740.025 79H891.07C894.697 79 897.637 81.8684 897.637 85.4068V93.9492H733.458V85.4068Z" fill="#D92638"/>
<path d="M425.363 331.831C431.93 331.831 436.308 329.695 440.687 325.424V373.475H576.408V325.424C580.786 329.695 585.164 332.003 590.637 332.003V424.729C590.637 427.932 588.448 429 585.164 429H430.836C427.552 429 425.363 425.797 425.363 422.593V331.831Z" fill="#D92638"/>
<path d="M587.901 264.559H429.194L398 296.059C398 331.831 442.876 331.831 442.876 296.059C442.876 331.831 486.657 331.831 486.657 296.059C486.657 331.831 530.438 331.831 530.438 296.059C530.438 332.003 575.313 332.003 574.219 296.059C575.313 332.003 618 332.003 618 296.059L587.901 264.559Z" fill="#D92638"/>
<path d="M426.458 246.407C426.458 242.868 429.398 240 433.025 240H584.07C587.697 240 590.637 242.868 590.637 246.407V254.949H426.458V246.407Z" fill="#D92638"/>
<rect x="60" y="498" width="1775" height="10" fill="#D92638"/>
<rect x="60" y="690" width="1775" height="10" fill="#D92638"/>
<rect x="80" y="594" width="176" height="10" fill="#D92638"/>
<rect x="462" y="594" width="176" height="10" fill="#D92638"/>
<rect x="844" y="594" width="176" height="10" fill="#D92638"/>
<rect x="1226" y="594" width="176" height="10" fill="#D92638"/>
<rect x="1608" y="594" width="176" height="10" fill="#D92638"/>
</svg>
