<svg width="1920" height="798" viewBox="0 0 1920 798" fill="none" xmlns="http://www.w3.org/2000/svg">
<rect width="1920" height="798" fill="white"/>
<path d="M109.363 140.831C115.93 140.831 120.308 138.695 124.687 134.424V182.475H260.408V134.424C264.786 138.695 269.164 141.003 274.637 141.003V233.729C274.637 236.932 272.448 238 269.164 238H114.836C111.552 238 109.363 234.797 109.363 231.593V140.831Z" fill="#00B975"/>
<path d="M271.901 73.5593H113.194L82 105.059C82 140.831 126.876 140.831 126.876 105.059C126.876 140.831 170.657 140.831 170.657 105.059C170.657 140.831 214.438 140.831 214.438 105.059C214.438 141.003 259.313 141.003 258.219 105.059C259.313 141.003 302 141.003 302 105.059L271.901 73.5593Z" fill="#00B975"/>
<path d="M110.458 55.4068C110.458 51.8684 113.398 49 117.025 49H268.07C271.697 49 274.637 51.8684 274.637 55.4068V63.9492H110.458V55.4068Z" fill="#00B975"/>
<path d="M1644.36 301.831C1650.93 301.831 1655.31 299.695 1659.69 295.424V343.475H1795.41V295.424C1799.79 299.695 1804.16 302.003 1809.64 302.003V394.729C1809.64 397.932 1807.45 399 1804.16 399H1649.84C1646.55 399 1644.36 395.797 1644.36 392.593V301.831Z" fill="#00B975"/>
<path d="M1806.9 234.559H1648.19L1617 266.059C1617 301.831 1661.88 301.831 1661.88 266.059C1661.88 301.831 1705.66 301.831 1705.66 266.059C1705.66 301.831 1749.44 301.831 1749.44 266.059C1749.44 302.003 1794.31 302.003 1793.22 266.059C1794.31 302.003 1837 302.003 1837 266.059L1806.9 234.559Z" fill="#00B975"/>
<path d="M1645.46 216.407C1645.46 212.868 1648.4 210 1652.02 210H1803.07C1806.7 210 1809.64 212.868 1809.64 216.407V224.949H1645.46V216.407Z" fill="#00B975"/>
<path d="M1337.36 140.831C1343.93 140.831 1348.31 138.695 1352.69 134.424V182.475H1488.41V134.424C1492.79 138.695 1497.16 141.003 1502.64 141.003V233.729C1502.64 236.932 1500.45 238 1497.16 238H1342.84C1339.55 238 1337.36 234.797 1337.36 231.593V140.831Z" fill="#00B975"/>
<path d="M1499.9 73.5593H1341.19L1310 105.059C1310 140.831 1354.88 140.831 1354.88 105.059C1354.88 140.831 1398.66 140.831 1398.66 105.059C1398.66 140.831 1442.44 140.831 1442.44 105.059C1442.44 141.003 1487.31 141.003 1486.22 105.059C1487.31 141.003 1530 141.003 1530 105.059L1499.9 73.5593Z" fill="#00B975"/>
<path d="M1338.46 55.4068C1338.46 51.8684 1341.4 49 1345.02 49H1496.07C1499.7 49 1502.64 51.8684 1502.64 55.4068V63.9492H1338.46V55.4068Z" fill="#00B975"/>
<path d="M1030.36 301.831C1036.93 301.831 1041.31 299.695 1045.69 295.424V343.475H1181.41V295.424C1185.79 299.695 1190.16 302.003 1195.64 302.003V394.729C1195.64 397.932 1193.45 399 1190.16 399H1035.84C1032.55 399 1030.36 395.797 1030.36 392.593V301.831Z" fill="#00B975"/>
<path d="M1192.9 234.559H1034.19L1003 266.059C1003 301.831 1047.88 301.831 1047.88 266.059C1047.88 301.831 1091.66 301.831 1091.66 266.059C1091.66 301.831 1135.44 301.831 1135.44 266.059C1135.44 302.003 1180.31 302.003 1179.22 266.059C1180.31 302.003 1223 302.003 1223 266.059L1192.9 234.559Z" fill="#00B975"/>
<path d="M1031.46 216.407C1031.46 212.868 1034.4 210 1038.02 210H1189.07C1192.7 210 1195.64 212.868 1195.64 216.407V224.949H1031.46V216.407Z" fill="#00B975"/>
<path d="M723.363 140.831C729.93 140.831 734.308 138.695 738.687 134.424V182.475H874.408V134.424C878.786 138.695 883.164 141.003 888.637 141.003V233.729C888.637 236.932 886.448 238 883.164 238H728.836C725.552 238 723.363 234.797 723.363 231.593V140.831Z" fill="#00B975"/>
<path d="M885.901 73.5593H727.194L696 105.059C696 140.831 740.876 140.831 740.876 105.059C740.876 140.831 784.657 140.831 784.657 105.059C784.657 140.831 828.438 140.831 828.438 105.059C828.438 141.003 873.313 141.003 872.219 105.059C873.313 141.003 916 141.003 916 105.059L885.901 73.5593Z" fill="#00B975"/>
<path d="M724.458 55.4068C724.458 51.8684 727.398 49 731.025 49H882.07C885.697 49 888.637 51.8684 888.637 55.4068V63.9492H724.458V55.4068Z" fill="#00B975"/>
<path d="M416.363 301.831C422.93 301.831 427.308 299.695 431.687 295.424V343.475H567.408V295.424C571.786 299.695 576.164 302.003 581.637 302.003V394.729C581.637 397.932 579.448 399 576.164 399H421.836C418.552 399 416.363 395.797 416.363 392.593V301.831Z" fill="#00B975"/>
<path d="M578.901 234.559H420.194L389 266.059C389 301.831 433.876 301.831 433.876 266.059C433.876 301.831 477.657 301.831 477.657 266.059C477.657 301.831 521.438 301.831 521.438 266.059C521.438 302.003 566.313 302.003 565.219 266.059C566.313 302.003 609 302.003 609 266.059L578.901 234.559Z" fill="#00B975"/>
<path d="M417.458 216.407C417.458 212.868 420.398 210 424.025 210H575.07C578.697 210 581.637 212.868 581.637 216.407V224.949H417.458V216.407Z" fill="#00B975"/>
<path d="M109.363 140.831C115.93 140.831 120.308 138.695 124.687 134.424V182.475H260.408V134.424C264.786 138.695 269.164 141.003 274.637 141.003V233.729C274.637 236.932 272.448 238 269.164 238H114.836C111.552 238 109.363 234.797 109.363 231.593V140.831Z" fill="#00B975"/>
<path d="M271.901 73.5593H113.194L82 105.059C82 140.831 126.876 140.831 126.876 105.059C126.876 140.831 170.657 140.831 170.657 105.059C170.657 140.831 214.438 140.831 214.438 105.059C214.438 141.003 259.313 141.003 258.219 105.059C259.313 141.003 302 141.003 302 105.059L271.901 73.5593Z" fill="#00B975"/>
<path d="M110.458 55.4068C110.458 51.8684 113.398 49 117.025 49H268.07C271.697 49 274.637 51.8684 274.637 55.4068V63.9492H110.458V55.4068Z" fill="#00B975"/>
<path d="M1644.36 301.831C1650.93 301.831 1655.31 299.695 1659.69 295.424V343.475H1795.41V295.424C1799.79 299.695 1804.16 302.003 1809.64 302.003V394.729C1809.64 397.932 1807.45 399 1804.16 399H1649.84C1646.55 399 1644.36 395.797 1644.36 392.593V301.831Z" fill="#00B975"/>
<path d="M1806.9 234.559H1648.19L1617 266.059C1617 301.831 1661.88 301.831 1661.88 266.059C1661.88 301.831 1705.66 301.831 1705.66 266.059C1705.66 301.831 1749.44 301.831 1749.44 266.059C1749.44 302.003 1794.31 302.003 1793.22 266.059C1794.31 302.003 1837 302.003 1837 266.059L1806.9 234.559Z" fill="#00B975"/>
<path d="M1645.46 216.407C1645.46 212.868 1648.4 210 1652.02 210H1803.07C1806.7 210 1809.64 212.868 1809.64 216.407V224.949H1645.46V216.407Z" fill="#00B975"/>
<path d="M1337.36 140.831C1343.93 140.831 1348.31 138.695 1352.69 134.424V182.475H1488.41V134.424C1492.79 138.695 1497.16 141.003 1502.64 141.003V233.729C1502.64 236.932 1500.45 238 1497.16 238H1342.84C1339.55 238 1337.36 234.797 1337.36 231.593V140.831Z" fill="#00B975"/>
<path d="M1499.9 73.5593H1341.19L1310 105.059C1310 140.831 1354.88 140.831 1354.88 105.059C1354.88 140.831 1398.66 140.831 1398.66 105.059C1398.66 140.831 1442.44 140.831 1442.44 105.059C1442.44 141.003 1487.31 141.003 1486.22 105.059C1487.31 141.003 1530 141.003 1530 105.059L1499.9 73.5593Z" fill="#00B975"/>
<path d="M1338.46 55.4068C1338.46 51.8684 1341.4 49 1345.02 49H1496.07C1499.7 49 1502.64 51.8684 1502.64 55.4068V63.9492H1338.46V55.4068Z" fill="#00B975"/>
<path d="M1030.36 301.831C1036.93 301.831 1041.31 299.695 1045.69 295.424V343.475H1181.41V295.424C1185.79 299.695 1190.16 302.003 1195.64 302.003V394.729C1195.64 397.932 1193.45 399 1190.16 399H1035.84C1032.55 399 1030.36 395.797 1030.36 392.593V301.831Z" fill="#00B975"/>
<path d="M1192.9 234.559H1034.19L1003 266.059C1003 301.831 1047.88 301.831 1047.88 266.059C1047.88 301.831 1091.66 301.831 1091.66 266.059C1091.66 301.831 1135.44 301.831 1135.44 266.059C1135.44 302.003 1180.31 302.003 1179.22 266.059C1180.31 302.003 1223 302.003 1223 266.059L1192.9 234.559Z" fill="#00B975"/>
<path d="M1031.46 216.407C1031.46 212.868 1034.4 210 1038.02 210H1189.07C1192.7 210 1195.64 212.868 1195.64 216.407V224.949H1031.46V216.407Z" fill="#00B975"/>
<path d="M723.363 140.831C729.93 140.831 734.308 138.695 738.687 134.424V182.475H874.408V134.424C878.786 138.695 883.164 141.003 888.637 141.003V233.729C888.637 236.932 886.448 238 883.164 238H728.836C725.552 238 723.363 234.797 723.363 231.593V140.831Z" fill="#00B975"/>
<path d="M885.901 73.5593H727.194L696 105.059C696 140.831 740.876 140.831 740.876 105.059C740.876 140.831 784.657 140.831 784.657 105.059C784.657 140.831 828.438 140.831 828.438 105.059C828.438 141.003 873.313 141.003 872.219 105.059C873.313 141.003 916 141.003 916 105.059L885.901 73.5593Z" fill="#00B975"/>
<path d="M724.458 55.4068C724.458 51.8684 727.398 49 731.025 49H882.07C885.697 49 888.637 51.8684 888.637 55.4068V63.9492H724.458V55.4068Z" fill="#00B975"/>
<path d="M416.363 301.831C422.93 301.831 427.308 299.695 431.687 295.424V343.475H567.408V295.424C571.786 299.695 576.164 302.003 581.637 302.003V394.729C581.637 397.932 579.448 399 576.164 399H421.836C418.552 399 416.363 395.797 416.363 392.593V301.831Z" fill="#00B975"/>
<path d="M578.901 234.559H420.194L389 266.059C389 301.831 433.876 301.831 433.876 266.059C433.876 301.831 477.657 301.831 477.657 266.059C477.657 301.831 521.438 301.831 521.438 266.059C521.438 302.003 566.313 302.003 565.219 266.059C566.313 302.003 609 302.003 609 266.059L578.901 234.559Z" fill="#00B975"/>
<path d="M417.458 216.407C417.458 212.868 420.398 210 424.025 210H575.07C578.697 210 581.637 212.868 581.637 216.407V224.949H417.458V216.407Z" fill="#00B975"/>
<path d="M109.363 490.831C115.93 490.831 120.308 488.695 124.687 484.424V532.475H260.408V484.424C264.786 488.695 269.164 491.003 274.637 491.003V583.729C274.637 586.932 272.448 588 269.164 588H114.836C111.552 588 109.363 584.797 109.363 581.593V490.831Z" fill="#00B975"/>
<path d="M271.901 423.559H113.194L82 455.059C82 490.831 126.876 490.831 126.876 455.059C126.876 490.831 170.657 490.831 170.657 455.059C170.657 490.831 214.438 490.831 214.438 455.059C214.438 491.003 259.313 491.003 258.219 455.059C259.313 491.003 302 491.003 302 455.059L271.901 423.559Z" fill="#00B975"/>
<path d="M110.458 405.407C110.458 401.868 113.398 399 117.025 399H268.07C271.697 399 274.637 401.868 274.637 405.407V413.949H110.458V405.407Z" fill="#00B975"/>
<path d="M1644.36 651.831C1650.93 651.831 1655.31 649.695 1659.69 645.424V693.475H1795.41V645.424C1799.79 649.695 1804.16 652.003 1809.64 652.003V744.729C1809.64 747.932 1807.45 749 1804.16 749H1649.84C1646.55 749 1644.36 745.797 1644.36 742.593V651.831Z" fill="#00B975"/>
<path d="M1806.9 584.559H1648.19L1617 616.059C1617 651.831 1661.88 651.831 1661.88 616.059C1661.88 651.831 1705.66 651.831 1705.66 616.059C1705.66 651.831 1749.44 651.831 1749.44 616.059C1749.44 652.003 1794.31 652.003 1793.22 616.059C1794.31 652.003 1837 652.003 1837 616.059L1806.9 584.559Z" fill="#00B975"/>
<path d="M1645.46 566.407C1645.46 562.868 1648.4 560 1652.02 560H1803.07C1806.7 560 1809.64 562.868 1809.64 566.407V574.949H1645.46V566.407Z" fill="#00B975"/>
<path d="M1337.36 490.831C1343.93 490.831 1348.31 488.695 1352.69 484.424V532.475H1488.41V484.424C1492.79 488.695 1497.16 491.003 1502.64 491.003V583.729C1502.64 586.932 1500.45 588 1497.16 588H1342.84C1339.55 588 1337.36 584.797 1337.36 581.593V490.831Z" fill="#00B975"/>
<path d="M1499.9 423.559H1341.19L1310 455.059C1310 490.831 1354.88 490.831 1354.88 455.059C1354.88 490.831 1398.66 490.831 1398.66 455.059C1398.66 490.831 1442.44 490.831 1442.44 455.059C1442.44 491.003 1487.31 491.003 1486.22 455.059C1487.31 491.003 1530 491.003 1530 455.059L1499.9 423.559Z" fill="#00B975"/>
<path d="M1338.46 405.407C1338.46 401.868 1341.4 399 1345.02 399H1496.07C1499.7 399 1502.64 401.868 1502.64 405.407V413.949H1338.46V405.407Z" fill="#00B975"/>
<path d="M1030.36 651.831C1036.93 651.831 1041.31 649.695 1045.69 645.424V693.475H1181.41V645.424C1185.79 649.695 1190.16 652.003 1195.64 652.003V744.729C1195.64 747.932 1193.45 749 1190.16 749H1035.84C1032.55 749 1030.36 745.797 1030.36 742.593V651.831Z" fill="#00B975"/>
<path d="M1192.9 584.559H1034.19L1003 616.059C1003 651.831 1047.88 651.831 1047.88 616.059C1047.88 651.831 1091.66 651.831 1091.66 616.059C1091.66 651.831 1135.44 651.831 1135.44 616.059C1135.44 652.003 1180.31 652.003 1179.22 616.059C1180.31 652.003 1223 652.003 1223 616.059L1192.9 584.559Z" fill="#00B975"/>
<path d="M1031.46 566.407C1031.46 562.868 1034.4 560 1038.02 560H1189.07C1192.7 560 1195.64 562.868 1195.64 566.407V574.949H1031.46V566.407Z" fill="#00B975"/>
<path d="M723.363 490.831C729.93 490.831 734.308 488.695 738.687 484.424V532.475H874.408V484.424C878.786 488.695 883.164 491.003 888.637 491.003V583.729C888.637 586.932 886.448 588 883.164 588H728.836C725.552 588 723.363 584.797 723.363 581.593V490.831Z" fill="#00B975"/>
<path d="M885.901 423.559H727.194L696 455.059C696 490.831 740.876 490.831 740.876 455.059C740.876 490.831 784.657 490.831 784.657 455.059C784.657 490.831 828.438 490.831 828.438 455.059C828.438 491.003 873.313 491.003 872.219 455.059C873.313 491.003 916 491.003 916 455.059L885.901 423.559Z" fill="#00B975"/>
<path d="M724.458 405.407C724.458 401.868 727.398 399 731.025 399H882.07C885.697 399 888.637 401.868 888.637 405.407V413.949H724.458V405.407Z" fill="#00B975"/>
<path d="M416.363 651.831C422.93 651.831 427.308 649.695 431.687 645.424V693.475H567.408V645.424C571.786 649.695 576.164 652.003 581.637 652.003V744.729C581.637 747.932 579.448 749 576.164 749H421.836C418.552 749 416.363 745.797 416.363 742.593V651.831Z" fill="#00B975"/>
<path d="M578.901 584.559H420.194L389 616.059C389 651.831 433.876 651.831 433.876 616.059C433.876 651.831 477.657 651.831 477.657 616.059C477.657 651.831 521.438 651.831 521.438 616.059C521.438 652.003 566.313 652.003 565.219 616.059C566.313 652.003 609 652.003 609 616.059L578.901 584.559Z" fill="#00B975"/>
<path d="M417.458 566.407C417.458 562.868 420.398 560 424.025 560H575.07C578.697 560 581.637 562.868 581.637 566.407V574.949H417.458V566.407Z" fill="#00B975"/>
</svg>
