<svg width="1053" height="166" viewBox="0 0 1053 166" fill="none" xmlns="http://www.w3.org/2000/svg">
<path d="M154.6 124L127.976 50.1601H144.304L163.96 106.216L183.616 50.1601H199.944L173.216 124H154.6Z" fill="black"/>
<path d="M205.989 124V68.2561H221.589V124H205.989ZM205.677 61.3921V48.9121H221.797V61.3921H205.677Z" fill="black"/>
<path d="M235.95 124V68.2561H250.718L251.238 84.4801L250.094 84.1681C250.995 78.5521 252.59 74.4961 254.878 72.0001C257.166 69.5041 260.321 68.2561 264.342 68.2561H269.438V81.1521H264.342C261.43 81.1521 259.038 81.5334 257.166 82.2961C255.294 83.0588 253.873 84.2721 252.902 85.9361C252.001 87.6001 251.55 89.8534 251.55 92.6961V124H235.95Z" fill="black"/>
<path d="M299.866 124C294.111 124 289.882 122.683 287.178 120.048C284.474 117.344 283.122 113.08 283.122 107.256V55.1521H298.722V105.384C298.722 108.088 299.277 109.925 300.386 110.896C301.565 111.867 303.298 112.352 305.586 112.352H313.386V124H299.866ZM274.178 79.9041V68.2561H313.386V79.9041H274.178Z" fill="black"/>
<path d="M341.293 125.248C335.538 125.248 331.032 123.411 327.773 119.736C324.584 115.992 322.989 110.792 322.989 104.136V68.2561H338.589V100.496C338.589 104.795 339.248 107.949 340.565 109.96C341.882 111.901 343.962 112.872 346.805 112.872C349.994 112.872 352.456 111.797 354.189 109.648C355.992 107.429 356.893 104.136 356.893 99.7681V68.2561H372.493V124H358.245L357.829 107.984L359.805 108.4C358.973 113.947 356.997 118.141 353.877 120.984C350.757 123.827 346.562 125.248 341.293 125.248Z" fill="black"/>
<path d="M386.18 124V50.1601H437.14V63.4721H393.252L401.988 54.4241V88.2241L393.252 81.3601H435.268V94.4641H393.252L401.988 87.6001V124H386.18Z" fill="black"/>
<path d="M470.639 125.248C464.954 125.248 459.996 124.069 455.767 121.712C451.607 119.285 448.348 115.888 445.991 111.52C443.703 107.152 442.559 102.021 442.559 96.1281C442.559 90.2348 443.703 85.1388 445.991 80.8401C448.348 76.4721 451.607 73.0748 455.767 70.6481C459.927 68.2214 464.85 67.0081 470.535 67.0081C476.082 67.0081 480.9 68.2214 484.991 70.6481C489.082 73.0748 492.236 76.5414 494.455 81.0481C496.743 85.5548 497.887 90.9281 497.887 97.1681V100.288H458.679C458.887 104.725 460.066 108.019 462.215 110.168C464.434 112.317 467.346 113.392 470.951 113.392C473.586 113.392 475.77 112.837 477.503 111.728C479.306 110.619 480.588 108.92 481.351 106.632L497.055 107.568C495.599 113.115 492.514 117.448 487.799 120.568C483.084 123.688 477.364 125.248 470.639 125.248ZM458.679 90.7201H481.871C481.663 86.6294 480.519 83.5788 478.439 81.5681C476.428 79.5574 473.794 78.5521 470.535 78.5521C467.276 78.5521 464.572 79.6268 462.423 81.7761C460.343 83.8561 459.095 86.8374 458.679 90.7201Z" fill="black"/>
<path d="M531.344 125.248C525.589 125.248 520.771 124.451 516.888 122.856C513.005 121.192 510.024 118.973 507.944 116.2C505.933 113.357 504.789 110.099 504.512 106.424L520.32 105.904C520.805 108.539 521.915 110.584 523.648 112.04C525.381 113.496 527.947 114.224 531.344 114.224C534.117 114.224 536.267 113.773 537.792 112.872C539.387 111.971 540.184 110.584 540.184 108.712C540.184 107.533 539.907 106.563 539.352 105.8C538.797 104.968 537.688 104.275 536.024 103.72C534.429 103.096 532.037 102.541 528.848 102.056C522.955 101.016 518.344 99.8028 515.016 98.4161C511.688 97.0294 509.331 95.2268 507.944 93.0081C506.557 90.7894 505.864 88.0855 505.864 84.8961C505.864 79.5575 507.909 75.2588 512 72.0001C516.16 68.6721 522.365 67.0081 530.616 67.0081C535.885 67.0081 540.288 67.8401 543.824 69.5041C547.429 71.1681 550.203 73.4561 552.144 76.3681C554.155 79.2108 555.403 82.4694 555.888 86.1441L540.184 86.7681C539.976 84.9654 539.421 83.4401 538.52 82.1921C537.688 80.8748 536.613 79.8694 535.296 79.1761C533.979 78.4134 532.384 78.0321 530.512 78.0321C527.739 78.0321 525.589 78.6214 524.064 79.8001C522.608 80.9094 521.88 82.4001 521.88 84.2721C521.88 85.6588 522.192 86.8028 522.816 87.7041C523.509 88.5361 524.619 89.2294 526.144 89.7841C527.669 90.3388 529.715 90.7894 532.28 91.1361C538.243 91.9681 542.957 93.1468 546.424 94.6721C549.96 96.1281 552.491 97.9654 554.016 100.184C555.541 102.403 556.304 105.141 556.304 108.4C556.304 112.005 555.264 115.056 553.184 117.552C551.104 120.048 548.192 121.955 544.448 123.272C540.773 124.589 536.405 125.248 531.344 125.248Z" fill="black"/>
<path d="M587.288 124C581.533 124 577.304 122.683 574.6 120.048C571.896 117.344 570.544 113.08 570.544 107.256V55.1521H586.144V105.384C586.144 108.088 586.699 109.925 587.808 110.896C588.987 111.867 590.72 112.352 593.008 112.352H600.808V124H587.288ZM561.6 79.9041V68.2561H600.808V79.9041H561.6Z" fill="black"/>
<path d="M13.9303 74.1017C17.2736 74.1017 19.5025 72.9831 21.7313 70.7458V95.9153H90.8259V70.7458C93.0547 72.9831 95.2836 74.1923 98.0696 74.1923V122.763C98.0696 124.441 96.9552 125 95.2836 125H16.7164C15.0448 125 13.9303 123.322 13.9303 121.644V74.1017Z" fill="#D92638"/>
<path d="M96.6766 38.8644H15.8806L0 55.3644C0 74.1017 22.8458 74.1017 22.8458 55.3644C22.8458 74.1017 45.1343 74.1017 45.1343 55.3644C45.1343 74.1017 67.4229 74.1017 67.4229 55.3644C67.4229 74.1923 90.2687 74.1923 89.7114 55.3644C90.2687 74.1923 112 74.1923 112 55.3644L96.6766 38.8644Z" fill="#D92638"/>
<path d="M14.4876 29.3559C14.4876 27.5025 15.9844 26 17.8308 26H94.7264C96.5728 26 98.0696 27.5025 98.0696 29.3559V33.8305H14.4876V29.3559Z" fill="#D92638"/>
<rect x="629" width="7" height="166" fill="black"/>
<path d="M674.737 123V44.19H704.596C710.146 44.19 714.919 45.152 718.915 47.076C722.911 49 725.982 51.775 728.128 55.401C730.348 58.953 731.458 63.171 731.458 68.055C731.458 71.607 730.607 74.789 728.905 77.601C727.277 80.339 725.168 82.522 722.578 84.15C719.988 85.778 717.287 86.666 714.475 86.814L713.809 85.815C718.619 85.815 722.393 86.925 725.131 89.145C727.943 91.365 729.571 94.917 730.015 99.801L732.235 123H722.578L720.58 100.8C720.284 97.544 719.1 95.139 717.028 93.585C715.03 92.031 711.737 91.254 707.149 91.254H684.283V123H674.737ZM684.283 81.93H705.817C710.627 81.93 714.438 80.709 717.25 78.267C720.062 75.825 721.468 72.347 721.468 67.833C721.468 63.245 720.025 59.73 717.139 57.288C714.253 54.772 710.072 53.514 704.596 53.514H684.283V81.93ZM769.659 124.332C764.109 124.332 759.299 123.074 755.229 120.558C751.233 118.042 748.125 114.49 745.905 109.902C743.759 105.24 742.686 99.801 742.686 93.585C742.686 87.369 743.759 81.967 745.905 77.379C748.125 72.791 751.196 69.239 755.118 66.723C759.114 64.133 763.813 62.838 769.215 62.838C774.321 62.838 778.835 64.059 782.757 66.501C786.679 68.869 789.713 72.347 791.859 76.935C794.079 81.523 795.189 87.11 795.189 93.696V96.471H752.454C752.824 102.761 754.489 107.497 757.449 110.679C760.483 113.861 764.553 115.452 769.659 115.452C773.507 115.452 776.652 114.564 779.094 112.788C781.61 110.938 783.349 108.533 784.311 105.573L794.301 106.35C792.747 111.604 789.787 115.933 785.421 119.337C781.129 122.667 775.875 124.332 769.659 124.332ZM752.454 88.257H784.977C784.533 82.559 782.868 78.378 779.982 75.714C777.17 73.05 773.581 71.718 769.215 71.718C764.701 71.718 760.964 73.124 758.004 75.936C755.118 78.674 753.268 82.781 752.454 88.257ZM821.07 123L799.647 64.17H809.859L826.953 113.454L844.047 64.17H854.259L832.836 123H821.07ZM882.741 124.332C876.895 124.332 872.196 122.371 868.644 118.449C865.166 114.453 863.427 108.977 863.427 102.021V64.17H872.751V99.468C872.751 105.166 873.75 109.384 875.748 112.122C877.82 114.786 880.965 116.118 885.183 116.118C889.845 116.118 893.508 114.638 896.172 111.678C898.836 108.644 900.168 104.5 900.168 99.246V64.17H909.492V123H900.612V108.459L902.055 109.236C900.871 114.046 898.614 117.783 895.284 120.447C891.954 123.037 887.773 124.332 882.741 124.332ZM881.964 56.622L889.29 42.414H899.724L889.734 56.622H881.964ZM949.167 124.332C943.691 124.332 938.918 123.074 934.848 120.558C930.852 118.042 927.744 114.49 925.524 109.902C923.304 105.24 922.194 99.801 922.194 93.585C922.194 87.369 923.304 81.967 925.524 77.379C927.744 72.791 930.852 69.239 934.848 66.723C938.918 64.133 943.691 62.838 949.167 62.838C953.681 62.838 957.677 63.652 961.155 65.28C964.707 66.834 967.593 69.128 969.813 72.162C972.033 75.196 973.476 78.896 974.142 83.262L964.374 83.928C963.708 80.006 962.006 77.009 959.268 74.937C956.53 72.791 953.163 71.718 949.167 71.718C943.765 71.718 939.547 73.679 936.513 77.601C933.479 81.449 931.962 86.777 931.962 93.585C931.962 100.393 933.479 105.758 936.513 109.68C939.547 113.528 943.765 115.452 949.167 115.452C953.163 115.452 956.53 114.342 959.268 112.122C962.006 109.902 963.708 106.572 964.374 102.132L974.142 102.798C973.476 107.164 972.033 110.975 969.813 114.231C967.593 117.413 964.707 119.892 961.155 121.668C957.677 123.444 953.681 124.332 949.167 124.332ZM1003.09 124.332C997.023 124.332 992.176 122.926 988.55 120.114C984.998 117.302 983.222 113.38 983.222 108.348C983.222 103.316 984.702 99.357 987.662 96.471C990.622 93.585 995.321 91.55 1001.76 90.366L1022.63 86.481C1022.63 81.523 1021.44 77.823 1019.08 75.381C1016.78 72.939 1013.3 71.718 1008.64 71.718C1004.57 71.718 1001.35 72.643 998.984 74.493C996.616 76.269 994.988 78.859 994.1 82.263L984.221 81.486C985.331 75.936 987.995 71.459 992.213 68.055C996.505 64.577 1001.98 62.838 1008.64 62.838C1016.19 62.838 1021.96 64.984 1025.96 69.276C1029.95 73.494 1031.95 79.34 1031.95 86.814V111.123C1031.95 112.455 1032.17 113.417 1032.62 114.009C1033.14 114.527 1033.95 114.786 1035.06 114.786H1037.39V123C1037.09 123.074 1036.61 123.111 1035.95 123.111C1035.28 123.185 1034.58 123.222 1033.84 123.222C1031.17 123.222 1028.99 122.815 1027.29 122.001C1025.66 121.113 1024.48 119.781 1023.74 118.005C1023 116.155 1022.63 113.75 1022.63 110.79L1023.74 111.012C1023.22 113.528 1021.96 115.822 1019.96 117.894C1017.97 119.892 1015.49 121.483 1012.53 122.667C1009.57 123.777 1006.42 124.332 1003.09 124.332ZM1003.98 116.118C1007.9 116.118 1011.23 115.378 1013.97 113.898C1016.78 112.344 1018.93 110.272 1020.41 107.682C1021.89 105.018 1022.63 102.058 1022.63 98.802V94.584L1003.54 98.136C999.539 98.876 996.764 100.023 995.21 101.577C993.73 103.057 992.99 105.018 992.99 107.46C992.99 110.198 993.952 112.344 995.876 113.898C997.874 115.378 1000.58 116.118 1003.98 116.118Z" fill="black"/>
</svg>
