<svg width="112" height="99" viewBox="0 0 112 99" fill="none" xmlns="http://www.w3.org/2000/svg">
<path d="M13.9303 48.1017C17.2736 48.1017 19.5025 46.9831 21.7313 44.7458V69.9153H90.8259V44.7458C93.0547 46.9831 95.2836 48.1923 98.0696 48.1923V96.7627C98.0696 98.4407 96.9552 99 95.2836 99H16.7164C15.0448 99 13.9303 97.322 13.9303 95.6441V48.1017Z" fill="#00B975"/>
<path d="M96.6766 12.8644H15.8806L0 29.3644C0 48.1017 22.8458 48.1017 22.8458 29.3644C22.8458 48.1017 45.1343 48.1017 45.1343 29.3644C45.1343 48.1017 67.4229 48.1017 67.4229 29.3644C67.4229 48.1923 90.2687 48.1923 89.7114 29.3644C90.2687 48.1923 112 48.1923 112 29.3644L96.6766 12.8644Z" fill="#00B975"/>
<path d="M14.4876 3.35593C14.4876 1.5025 15.9844 0 17.8308 0H94.7264C96.5728 0 98.0696 1.5025 98.0696 3.35593V7.83051H14.4876V3.35593Z" fill="#00B975"/>
</svg>
